
      <svg data-logo="logo" xmlns="http://www.w3.org/2000/svg" viewBox="0 0 205 43">
        <g id="logogram" transform="translate(0, 1) rotate(0) "><path d="M0.754395 36.81C7.38184 36.81 12.7544 31.4374 12.7544 24.8101C12.7544 18.1826 7.38184 12.81 0.754395 12.81V21.21C2.74261 21.21 4.35437 22.8217 4.35437 24.8101C4.35437 26.7982 2.74261 28.41 0.754395 28.41V36.81Z" fill="#22C55E"/><path d="M40.7544 16.81C38.7038 16.1604 36.5201 15.8099 34.2544 15.8099C22.3802 15.8099 12.7544 25.4359 12.7544 37.3099C12.7544 38.5018 12.8514 39.671 13.0379 40.8099H26.3965C25.9196 39.7408 25.6545 38.5564 25.6545 37.3099C25.6545 32.5603 29.5048 28.7099 34.2544 28.7099C36.8503 28.7099 39.1775 29.8601 40.7544 31.6786V16.81Z" fill="#22C55E"/><path d="M2.86423 0.809967C3.85911 9.80987 11.4893 16.81 20.7544 16.81C30.0194 16.81 37.6496 9.80987 38.6445 0.809967H25.7718C24.9771 2.80219 23.0301 4.20996 20.7544 4.20996C18.4786 4.20996 16.5317 2.80219 15.7368 0.809967H2.86423Z" fill="#22C55E"/></g>
        <g id="logotype" transform="translate(47, 8.5)"><path fill="#22C55E" d="M23.43 26L16.43 26L16.43 6.33L6.56 6.33L6.56 1.15L33.30 1.15L33.30 6.33L23.43 6.33L23.43 26ZM37.64 26.35L37.64 26.35Q33.96 26.35 31.69 24.93Q29.41 23.52 29.41 20.86L29.41 20.86Q29.41 18.68 31.09 17.20Q32.77 15.71 36.70 15.32L36.70 15.32L44.22 14.59L44.22 14.41Q44.22 11.96 40.48 11.96L40.48 11.96Q38.76 11.96 37.80 12.47Q36.84 12.98 36.48 14.10L36.48 14.10L29.66 13.61Q30.08 12.00 31.30 10.63Q32.53 9.27 34.80 8.43Q37.08 7.59 40.58 7.59L40.58 7.59Q45.66 7.59 48.33 9.38Q51.01 11.16 51.01 14.59L51.01 14.59L51.01 20.57Q51.01 21.87 51.03 22.75Q51.05 23.62 51.10 24.37Q51.15 25.13 51.25 26L51.25 26L44.78 26L44.64 24.46Q43.41 25.48 41.59 25.91Q39.77 26.35 37.64 26.35ZM36.31 20.71L36.31 20.71Q36.31 21.41 36.96 21.85Q37.60 22.29 39.11 22.29L39.11 22.29Q40.37 22.29 41.54 22.04Q42.72 21.80 43.47 21.20Q44.22 20.61 44.22 19.59L44.22 19.59L44.22 18.37L38.41 19.11Q37.43 19.24 36.87 19.59Q36.31 19.95 36.31 20.71ZM61.27 5.70L54.55 5.70L54.55 0.80L61.27 0.80L61.27 5.70ZM61.27 26L54.48 26L54.48 8.01L61.27 8.01L61.27 26ZM71.70 26L64.91 26L64.91 1.15L71.70 1.15L71.70 26ZM82.55 26L75.55 26L75.55 1.15L97.59 1.15L97.59 6.33L82.55 6.33L82.55 11.72L96.83 11.72L96.83 16.69L82.55 16.69L82.55 26ZM107.15 26L100.36 26L100.36 1.15L107.15 1.15L107.15 26ZM122.48 26.42L122.48 26.42Q118.88 26.42 116.04 25.34Q113.21 24.25 111.58 22.15Q109.95 20.05 109.95 17.00L109.95 17.00Q109.95 13.92 111.49 11.82Q113.03 9.72 115.81 8.66Q118.60 7.59 122.27 7.59L122.27 7.59Q126.16 7.59 128.85 8.80Q131.55 10.00 132.86 12.40Q134.17 14.80 133.82 18.34L133.82 18.34L116.78 18.34Q116.95 19.80 118.33 20.82Q119.72 21.84 122.48 21.84L122.48 21.84Q124.93 21.84 126.00 21.27Q127.07 20.71 127.56 19.80L127.56 19.80L133.75 20.47Q132.98 23.38 129.94 24.90Q126.89 26.42 122.48 26.42ZM122.34 11.82L122.34 11.82Q119.72 11.82 118.40 12.72Q117.09 13.61 116.81 14.87L116.81 14.87L127.63 14.87Q127.42 13.40 126.10 12.61Q124.79 11.82 122.34 11.82ZM140.86 26L133.30 26L140.82 16.93L133.37 8.01L141.21 8.01L144.99 12.94L148.77 8.01L156.36 8.01L149.01 16.80L156.68 26L148.87 26L144.88 20.75L140.86 26Z"/></g>
        
      </svg>
    